# xmcd
#
# Track frame offsets: 
#        150
#        21522
#        42960
#        69620
#        99105
#        122032
#        150147
#        171852
#        196339
#        226916
#
# Disc length: 3338 seconds
#
# Revision: 0
# Processed by: cddbd v1.5.2PL0 Copyright (c) Steve Scherf et al.
# Submitted via: ExactAudioCopy v0.95b4
#
DISCID=750d080a
DTITLE=Jimmy "Bean" Ballero - Classic Rhythm and Blues from New Orleans
DYEAR=2007
DGENRE=Blues
TTITLE0=Let The Good Times Roll
TTITLE1=Got Me Runnin'
TTITLE2=House Of The Rising Sun
TTITLE3=Staggerlee
TTITLE4=Fever
TTITLE5=Jambalaya
TTITLE6=Stormy Monday
TTITLE7=I Got A Woman
TTITLE8=Summertime
TTITLE9=What A Wonderful World
EXTD=
EXTT0=
EXTT1=
EXTT2=
EXTT3=
EXTT4=
EXTT5=
EXTT6=
EXTT7=
EXTT8=
EXTT9=
PLAYORDER=
